<svg xmlns="http://www.w3.org/2000/svg" viewBox="0 0 32 32"><defs><style>.cls-1{fill:#24fe41;}.cls-2{fill:#fcfafa;}</style></defs><title>Asset 1</title><g id="Layer_2" data-name="Layer 2"><g id="Layer_1-2" data-name="Layer 1"><g id="Layer_2-2" data-name="Layer 2"><g id="Layer_1-2-2" data-name="Layer 1-2"><path class="cls-1" d="M28,0H4A4,4,0,0,0,0,4V28a4,4,0,0,0,4,4H28a4,4,0,0,0,4-4V4A4,4,0,0,0,28,0ZM25.6,27.8h-5V17.6H11.3V27.7h-5V4.3h5v9.2h9.3V4.3h5Z"/><polygon class="cls-2" points="20.7 13.5 11.4 13.5 11.4 4.3 6.4 4.3 6.4 27.8 11.4 27.8 11.4 17.6 20.7 17.6 20.7 27.8 25.6 27.8 25.6 4.3 20.7 4.3 20.7 13.5"/></g></g></g></g></svg>