<?xml version="1.0" encoding="utf-8"?>
<!-- Generator: Adobe Illustrator 22.0.1, SVG Export Plug-In . SVG Version: 6.00 Build 0)  -->
<svg version="1.1" id="Layer_1" xmlns="http://www.w3.org/2000/svg" xmlns:xlink="http://www.w3.org/1999/xlink" x="0px" y="0px"
	 viewBox="0 0 32 32" style="enable-background:new 0 0 32 32;" xml:space="preserve">
<style type="text/css">
	.st0{fill:#F81F01;}
	.st1{fill:#FCFAFA;}
</style>
<title>Asset 3</title>
<g id="Layer_2_1_">
	<g id="Layer_1-2">
		<path class="st0" d="M28,0H4C1.8,0,0,1.8,0,4v24c0,2.2,1.8,4,4,4h24c2.2,0,4-1.8,4-4V4C32,1.8,30.2,0,28,0z M25.6,27.8h-5V17.6
			h-9.3v10.1h-5V4.3h5v9.2h9.3V4.3h5V27.8z"/>
		<polygon class="st1" points="20.7,13.5 11.4,13.5 11.4,4.3 6.4,4.3 6.4,27.8 11.4,27.8 11.4,17.6 20.7,17.6 20.7,27.8 25.6,27.8 
			25.6,4.3 20.7,4.3 		"/>
	</g>
</g>
</svg>
