<svg xmlns="http://www.w3.org/2000/svg" xmlns:xlink="http://www.w3.org/1999/xlink" viewBox="0 0 3779.02 1273.96"><defs><style>.cls-1{fill:#fdfc47;}.cls-2{fill:url(#linear-gradient);}.cls-3{fill:url(#linear-gradient-2);}.cls-4{fill:url(#linear-gradient-3);}.cls-5{fill:url(#linear-gradient-4);}.cls-6{fill:#24fe41;}</style><linearGradient id="linear-gradient" x1="246" y1="88.99" x2="3907.47" y2="1061.38" gradientUnits="userSpaceOnUse"><stop offset="0" stop-color="#24fe41"/><stop offset="1" stop-color="#fdfc47"/></linearGradient><linearGradient id="linear-gradient-2" x1="300.8" y1="-117.33" x2="3962.26" y2="855.06" xlink:href="#linear-gradient"/><linearGradient id="linear-gradient-3" x1="369.23" y1="-374.99" x2="4030.69" y2="597.39" xlink:href="#linear-gradient"/><linearGradient id="linear-gradient-4" x1="129.81" y1="526.5" x2="3791.28" y2="1498.89" xlink:href="#linear-gradient"/></defs><title>Asset 4</title><g id="Layer_2" data-name="Layer 2"><g id="Layer_1-2" data-name="Layer 1"><path class="cls-1" d="M1270.58,1012.74a42.68,42.68,0,0,1,25.46,8q11.18,8,17.39,23h1.71l10.4-27.78h19.72l-36.18,177h-20.65l4-33.75h-1.24q-27.8,37-58.54,37-21.59,0-33.85-16t-12.27-43.76q0-33.59,11-62.33t30.43-45.06Q1247.44,1012.74,1270.58,1012.74Zm-29.51,161q15.06,0,30-14.93t24.22-38.92a131.63,131.63,0,0,0,9.32-48q0-16.63-8.69-26.49t-22.83-9.85q-16.15,0-30,13.89T1221.2,1087a157.09,157.09,0,0,0-7.92,50.06q0,18.4,7.3,27.53T1241.07,1173.74Z"/><path class="cls-1" d="M1427.4,1196.19q-28.58,0-44.87-17.6t-16.31-48.77a150.38,150.38,0,0,1,11.57-58.22q11.57-27.86,30.67-43.35t42.08-15.51q23.76,0,35.71,10.74t12,30q0,29.07-25.78,45.62t-73.75,16.55h-5.13l-.62,12.92q0,21.15,9.55,33t29.58,11.87a74,74,0,0,0,20.11-2.91q10.32-2.9,25.7-10.65v23.57a137.17,137.17,0,0,1-25.78,9.93A100.39,100.39,0,0,1,1427.4,1196.19ZM1449,1035.84q-16,0-30,15.18t-21.51,42.14h1.87q35.4,0,54.27-9.61t18.86-27.85a19.23,19.23,0,0,0-5.67-14.21Q1461.09,1035.84,1449,1035.84Z"/><path class="cls-1" d="M1622,1142.74q0,25.18-17.16,39.32t-48.37,14.13q-26.23,0-47.35-11.14v-25.52a94.9,94.9,0,0,0,23.44,10.5,82.51,82.51,0,0,0,23.29,3.71q19.57,0,29.51-8.07a25.46,25.46,0,0,0,9.93-20.67,22.9,22.9,0,0,0-5.43-15.5q-5.44-6.3-23.45-17.28-20.19-11.79-28.57-23.09t-8.38-26.81q0-22.29,15.68-35.93t41.3-13.65a116.36,116.36,0,0,1,51.24,12l-8.38,22.13-8.7-4a83.39,83.39,0,0,0-34.16-6.94q-14.43,0-22.67,7a22.77,22.77,0,0,0-8.23,18.17,23,23,0,0,0,5.52,15.5q5.51,6.46,22.74,16.63,16.62,9.69,23.84,16.64a47.92,47.92,0,0,1,10.79,14.93A43.7,43.7,0,0,1,1622,1142.74Z"/><path class="cls-1" d="M1705.34,1174.07q8.54,0,22.36-4.2v20.83a69.61,69.61,0,0,1-13,3.88,64.88,64.88,0,0,1-12.42,1.61q-19.41,0-29.74-9.61t-10.32-28.66a121.57,121.57,0,0,1,2.79-24.22l19.72-97.22H1658l2.18-11.79,28.72-12.59,19.41-36.82h15.22L1715,1016h42.54l-4,20.51h-42.39l-20,97.54q-2.8,14-2.8,21.31,0,9,4.5,13.89T1705.34,1174.07Z"/><path class="cls-1" d="M1860.3,1193l23-111.75q2.79-15.18,2.79-21.8,0-23.9-22.82-23.9-13.83,0-26.94,9.53t-23.14,27.69q-10,18.18-15.14,43.85L1782.36,1193h-26.09l51.24-251.27h26.09q-2.8,13.24-5.36,25.68T1823,992.64q-2.71,12.84-5.9,26.89t-7.37,30.52h1.7q14.59-19.87,28.81-28.42a56.73,56.73,0,0,1,29.73-8.56q20.34,0,31.44,11.62t11.11,33q0,10-3.57,26.8-6.06,31.17-22.52,108.52Z"/><path class="cls-1" d="M2007,1196.19q-28.57,0-44.88-17.6t-16.3-48.77a150.38,150.38,0,0,1,11.57-58.22q11.57-27.86,30.66-43.35t42.08-15.51q23.76,0,35.72,10.74t12,30q0,29.07-25.77,45.62t-73.76,16.55h-5.12l-.62,12.92q0,21.15,9.55,33t29.58,11.87a73.9,73.9,0,0,0,20.1-2.91q10.34-2.9,25.7-10.65v23.57a136.84,136.84,0,0,1-25.77,9.93A100.5,100.5,0,0,1,2007,1196.19Zm21.58-160.35q-16,0-30,15.18t-21.51,42.14h1.86q35.41,0,54.27-9.61t18.87-27.85a19.23,19.23,0,0,0-5.67-14.21Q2040.73,1035.84,2028.62,1035.84Z"/><path class="cls-1" d="M2148.8,1174.07q8.53,0,22.36-4.2v20.83a69.61,69.61,0,0,1-13,3.88,64.88,64.88,0,0,1-12.42,1.61q-19.41,0-29.74-9.61t-10.32-28.66a121.57,121.57,0,0,1,2.79-24.22l19.72-97.22h-26.71l2.18-11.79,28.72-12.59,19.41-36.82H2167l-8.54,40.69H2201l-4,20.51h-42.39l-20,97.54q-2.8,14-2.8,21.31,0,9,4.51,13.89T2148.8,1174.07Z"/><path class="cls-1" d="M2225.82,1193h-26.09l36.34-177h26.08Zm17.54-222.2q0-9,5-14.78a16.26,16.26,0,0,1,12.89-5.73q13.67,0,13.66,14.53a22.43,22.43,0,0,1-5.2,15q-5.2,6.13-12,6.14a14,14,0,0,1-10.25-4Q2243.36,978,2243.36,970.76Z"/><path class="cls-1" d="M2349.88,1196.19q-30.12,0-46.74-17.28t-16.61-48.77q0-32.3,11.49-59.59t31.75-42.55a73.89,73.89,0,0,1,45.58-15.26A110,110,0,0,1,2417,1021l-7.3,22.77q-18.63-8.24-34-8.24-17.4,0-31.76,12.36t-22.51,34.39a136.91,136.91,0,0,0-8.15,47.88q0,20.67,10.32,32.14t28.5,11.46a67.65,67.65,0,0,0,21.11-3.23,187.35,187.35,0,0,0,19.57-7.59V1186Q2373.48,1196.19,2349.88,1196.19Z"/><path class="cls-1" d="M2575.65,1196.19q-30.12,0-46.74-17.28t-16.61-48.77q0-32.3,11.49-59.59t31.75-42.55a73.88,73.88,0,0,1,45.57-15.26,110,110,0,0,1,41.62,8.24l-7.3,22.77q-18.63-8.24-34-8.24-17.39,0-31.75,12.36t-22.51,34.39a136.91,136.91,0,0,0-8.15,47.88q0,20.67,10.32,32.14t28.49,11.46a67.71,67.71,0,0,0,21.12-3.23,188.22,188.22,0,0,0,19.57-7.59V1186Q2599.25,1196.19,2575.65,1196.19Z"/><path class="cls-1" d="M2757,1012.74a68.55,68.55,0,0,1,18.63,2.26l-5.59,24.23a65.75,65.75,0,0,0-16.3-2.1q-14.13,0-26.48,9.69t-21.58,26.88a140.52,140.52,0,0,0-13.59,38.19L2675.49,1193H2649.4l36.34-177h21.58l-3.41,32.78h1.55q11.17-15.33,18.48-22a58.41,58.41,0,0,1,15.29-10.33A42.38,42.38,0,0,1,2757,1012.74Z"/><path class="cls-1" d="M2842.56,1196.19q-28.56,0-44.87-17.6t-16.3-48.77A150.2,150.2,0,0,1,2793,1071.6q11.57-27.86,30.66-43.35t42.08-15.51q23.76,0,35.71,10.74t12,30q0,29.07-25.78,45.62t-73.75,16.55h-5.12l-.63,12.92q0,21.15,9.55,33t29.58,11.87a74,74,0,0,0,20.11-2.91q10.32-2.9,25.7-10.65v23.57a136.65,136.65,0,0,1-25.78,9.93A100.39,100.39,0,0,1,2842.56,1196.19Zm21.59-160.35q-16,0-30.05,15.18t-21.5,42.14h1.86q35.4,0,54.27-9.61t18.86-27.85a19.26,19.26,0,0,0-5.66-14.21Q2876.26,1035.84,2864.15,1035.84Z"/><path class="cls-1" d="M3022.22,1012.74a42.68,42.68,0,0,1,25.46,8q11.18,8,17.39,23h1.71l10.4-27.78h19.72l-36.18,177h-20.65l4-33.75h-1.24q-27.79,37-58.54,37-21.59,0-33.85-16t-12.27-43.76q0-33.59,11-62.33t30.43-45.06Q2999.08,1012.74,3022.22,1012.74Zm-29.51,161q15.06,0,30-14.93t24.22-38.92a131.63,131.63,0,0,0,9.32-48q0-16.63-8.69-26.49t-22.83-9.85q-16.15,0-30,13.89T2972.84,1087a157.09,157.09,0,0,0-7.92,50.06q0,18.4,7.3,27.53T2992.71,1173.74Z"/><path class="cls-1" d="M3164,1174.07q8.54,0,22.36-4.2v20.83a69.61,69.61,0,0,1-13,3.88,64.88,64.88,0,0,1-12.42,1.61q-19.43,0-29.74-9.61t-10.33-28.66a121.64,121.64,0,0,1,2.8-24.22l19.72-97.22h-26.71l2.18-11.79,28.72-12.59,19.41-36.82h15.22l-8.54,40.69h42.54l-4,20.51h-42.39l-20,97.54q-2.8,14-2.8,21.31,0,9,4.5,13.89T3164,1174.07Z"/><path class="cls-1" d="M3241,1193h-26.09l36.33-177h26.09Zm17.54-222.2q0-9,5-14.78a16.26,16.26,0,0,1,12.89-5.73q13.67,0,13.66,14.53a22.43,22.43,0,0,1-5.2,15q-5.21,6.13-12,6.14a14,14,0,0,1-10.25-4Q3258.55,978,3258.54,970.76Z"/><path class="cls-1" d="M3321.12,1193l-19.41-177h26.08l9.94,99q3.73,41.67,3.73,58.46h.93q19.71-44.4,27.79-59.91l50.47-97.54h27.64l-91.77,177Z"/><path class="cls-1" d="M3468.63,1193h-26.09l36.34-177H3505Zm17.54-222.2q0-9,5-14.78a16.26,16.26,0,0,1,12.89-5.73q13.66,0,13.66,14.53a22.43,22.43,0,0,1-5.2,15q-5.2,6.13-12,6.14a14,14,0,0,1-10.25-4Q3486.18,978,3486.17,970.76Z"/><path class="cls-1" d="M3575.46,1174.07q8.53,0,22.35-4.2v20.83a69.38,69.38,0,0,1-13,3.88,64.79,64.79,0,0,1-12.42,1.61q-19.41,0-29.74-9.61t-10.32-28.66a121.57,121.57,0,0,1,2.79-24.22l19.72-97.22h-26.7l2.17-11.79L3559,1012.1l19.41-36.82h15.21l-8.54,40.69h42.55l-4,20.51H3581.2l-20,97.54q-2.79,14-2.79,21.31,0,9,4.5,13.89T3575.46,1174.07Z"/><path class="cls-1" d="M3632.44,1016h26.09l11.49,88q1.55,11.14,3,32.86t1.48,35h.93q5.43-14.05,13.51-32.3t12-25.19l50.46-98.35H3779L3671,1223q-14.44,27.76-28.57,38.59t-34,10.82a70.76,70.76,0,0,1-21.74-3.39v-21.8a71.06,71.06,0,0,0,20.35,2.91,31.49,31.49,0,0,0,21.81-8.16q9.09-8.16,17.63-24.14l11.8-22Z"/><path class="cls-2" d="M1775.16,825l-40.5-154H1467.49l-41.62,154H1182L1450.18,0h296.19L2018,825Zm-86.62-336L1653.1,354.09q-12.37-44.94-30.08-116.34t-23.34-102.31q-5.07,28.68-20,94.44T1513.62,489Z"/><path class="cls-3" d="M2106.76,3h286.78q167.55,0,248.81,49.69t81.27,154.62q0,69-35.41,117.89t-93.29,62.86v5.61q76.42,20.28,110.71,67.58T2739.93,584q0,112.05-84.08,176.53T2426.71,825H2106.76Zm222,315h67q47.86,0,74-19.64T2496,240q0-69-104.73-69h-62.5Zm0,162V654H2407q104.14,0,104.17-88.42,0-41.37-27.88-63.47T2402.53,480Z"/><path class="cls-4" d="M3145.4,3h286.78Q3599.73,3,3681,52.69t81.27,154.62q0,69-35.41,117.89t-93.3,62.86v5.61Q3710,414,3744.27,461.25T3778.57,584q0,112.05-84.08,176.53T3465.35,825H3145.4Zm222,315h67q47.85,0,74-19.64T3534.63,240q0-69-104.73-69h-62.5Zm0,162V654h78.26q104.16,0,104.17-88.42,0-41.37-27.87-63.47T3441.16,480Z"/><path class="cls-5" d="M745.88,0V472.31H345.93V0H0V1274H345.93V754.63h400V1274h345.93V0ZM461,544.72,302.29,609.94,461,683.51v55.7L230.58,624.09V590.91L461,489.25ZM519.9,751.36H473.57L575.8,477.1h46.14ZM863,637.55,632.56,739.21V683.74L791.3,618.52,632.56,545v-55.7L863,604.37Z"/><path class="cls-6" d="M2833.93,2h202.43V596.6c0,4.46-3.93,8.07-8.77,8.07h-184.9c-4.84,0-8.76-3.61-8.76-8.07Z"/><circle class="cls-1" cx="2935.14" cy="739.96" r="84"/></g></g></svg>