<svg xmlns="http://www.w3.org/2000/svg" viewBox="0 0 352.48 68.27"><defs><style>.cls-1{fill:#fcee21;}</style></defs><title>Asset 11</title><g id="Layer_2" data-name="Layer 2"><g id="Layer_1-2" data-name="Layer 1"><path class="cls-1" d="M89.93,10.05a3.35,3.35,0,0,1,2-1.59A12.3,12.3,0,0,1,95.59,8a12.89,12.89,0,0,1,3.48.38,5.78,5.78,0,0,1,2,.91,3.45,3.45,0,0,1,1.06,1.51,15.08,15.08,0,0,1,.37,3.92V56.64a21.14,21.14,0,0,1-.11,2.6,5.74,5.74,0,0,1-.72,2c-.7,1.36-2.67,2-5.89,2q-5.28,0-6.19-2.79a12.76,12.76,0,0,1-.45-3.93V41.23h-20V56.64a23.39,23.39,0,0,1-.11,2.6,6.18,6.18,0,0,1-.72,2c-.7,1.36-2.67,2-5.89,2q-5.28,0-6.19-2.79a12.76,12.76,0,0,1-.45-3.93V14.66a23.46,23.46,0,0,1,.11-2.61,6.26,6.26,0,0,1,.72-2c.7-1.36,2.67-2,5.89-2q5.28,0,6.26,2.8a14.57,14.57,0,0,1,.38,3.92v15.4h20V14.66a23.46,23.46,0,0,1,.11-2.61A6.26,6.26,0,0,1,89.93,10.05Z"/><path class="cls-1" d="M134.33,27.79q.45-4.21,6-4.22a15.77,15.77,0,0,1,4.38.45,3.16,3.16,0,0,1,2,1.58,6.38,6.38,0,0,1,.68,2,21.22,21.22,0,0,1,.11,2.61V56.64a21.14,21.14,0,0,1-.11,2.6,6.83,6.83,0,0,1-.64,2q-1.07,2-5.17,2c-2.75,0-4.58-.34-5.51-1a4.07,4.07,0,0,1-1.63-3q-2.79,4-9.32,4t-12.12-6a19.86,19.86,0,0,1,0-27.67q5.63-5.92,12.34-5.93a11.66,11.66,0,0,1,4.68.91,10.39,10.39,0,0,1,2.95,1.7A10.89,10.89,0,0,1,134.33,27.79ZM120.58,43.5a6.26,6.26,0,0,0,2,4.49,6.42,6.42,0,0,0,4.75,2A6,6,0,0,0,132,48a6.55,6.55,0,0,0,1.85-4.49A7,7,0,0,0,132,38.89a5.88,5.88,0,0,0-4.75-2.11,6.13,6.13,0,0,0-4.84,2.11A6.89,6.89,0,0,0,120.58,43.5Z"/><path class="cls-1" d="M175.32,23.64q6.72,0,12.35,6a19.89,19.89,0,0,1,0,27.67q-5.6,5.92-12,5.92t-9.14-3.62q-.6,3.7-6.49,3.7-4.75,0-5.81-2a6.83,6.83,0,0,1-.64-2,20.72,20.72,0,0,1-.12-2.6V11.56a20.5,20.5,0,0,1,.12-2.6A6.13,6.13,0,0,1,154.26,7c.7-1.36,2.67-2,5.89-2s5.08.68,5.74,2a6,6,0,0,1,.71,2,20.79,20.79,0,0,1,.12,2.61v15.7Q169.74,23.65,175.32,23.64ZM168.72,48a6,6,0,0,0,4.64,2,6.84,6.84,0,0,0,6.72-6.57,6.8,6.8,0,0,0-1.81-4.57,6.11,6.11,0,0,0-4.83-2.08,5.94,5.94,0,0,0-4.8,2.12,7,7,0,0,0-1.77,4.57A6.52,6.52,0,0,0,168.72,48Z"/><path class="cls-1" d="M210.62,16.2a3.19,3.19,0,0,1-2,1.55,16.4,16.4,0,0,1-7.63,0,3.19,3.19,0,0,1-2-1.58,7,7,0,0,1-.68-2,23.46,23.46,0,0,1-.11-2.61,23.13,23.13,0,0,1,.11-2.6A6.18,6.18,0,0,1,199,7q1-2,5.88-2t5.74,2a6.26,6.26,0,0,1,.72,2,21.22,21.22,0,0,1,.11,2.61,21.14,21.14,0,0,1-.11,2.6A6.12,6.12,0,0,1,210.62,16.2Zm-12.42,14a23.46,23.46,0,0,1,.11-2.61,7.08,7.08,0,0,1,.65-2c.7-1.3,2.66-2,5.88-2q3.63,0,5.14,1.28a4.19,4.19,0,0,1,1.36,3.25c0,.5.07,1.24.07,2.19V56.79a21,21,0,0,1-.11,2.6,6.18,6.18,0,0,1-.72,2q-1,2-5.81,2t-5.81-2a7,7,0,0,1-.65-2,23.08,23.08,0,0,1-.11-2.64Z"/><path class="cls-1" d="M239.27,23.64q6.72,0,12.35,6a19.89,19.89,0,0,1,0,27.67q-5.59,5.92-12,5.92t-9.14-3.62q-.6,3.7-6.49,3.7-4.76,0-5.81-2a6.83,6.83,0,0,1-.64-2,20.72,20.72,0,0,1-.12-2.6V11.56a20.5,20.5,0,0,1,.12-2.6A6.13,6.13,0,0,1,218.21,7c.7-1.36,2.67-2,5.89-2s5.08.68,5.74,2a6,6,0,0,1,.71,2,20.79,20.79,0,0,1,.12,2.61v15.7Q233.69,23.65,239.27,23.64ZM232.67,48a6,6,0,0,0,4.64,2A6.84,6.84,0,0,0,244,43.5a6.8,6.8,0,0,0-1.81-4.57,6.11,6.11,0,0,0-4.83-2.08,5.94,5.94,0,0,0-4.8,2.12,7,7,0,0,0-1.77,4.57A6.52,6.52,0,0,0,232.67,48Z"/><path class="cls-1" d="M41.69,62.5a10.6,10.6,0,0,1-5.21-1.79L4.25,41.58c-2-1-4.25-3.07-4.25-7.41A7.82,7.82,0,0,1,4.32,26.7C21.45,16.56,31.43,10.63,34,9.08a32.79,32.79,0,0,1,5-2.76,7.29,7.29,0,0,1,2.86-.54c3.46,0,5.66,3.7,6.38,4.92A9.64,9.64,0,0,1,50,15.49a6.19,6.19,0,0,1-.88,3.28,11.78,11.78,0,0,1-3.87,3.6l-.1.06c-10.61,6.27-16.57,9.8-19.81,11.73L45.15,45.92a15.36,15.36,0,0,1,2.41,1.62,6.17,6.17,0,0,1,2.52,4.83,9.64,9.64,0,0,1-1.7,5A15.31,15.31,0,0,1,45.5,61,5.78,5.78,0,0,1,41.69,62.5Zm.11-51.73a2.44,2.44,0,0,0-.89.16,2.08,2.08,0,0,1-.32.12,42.9,42.9,0,0,0-4,2.31C34,14.92,24,20.86,6.79,31l-.15.08C5.83,31.53,5,32.21,5,34.17s.78,2.6,1.54,3l.18.09L39,56.41a6,6,0,0,0,2.65,1.09,1.16,1.16,0,0,0,.56-.31,10.83,10.83,0,0,0,1.87-2.47,5.08,5.08,0,0,0,1-2.35c0-.36-.52-.83-.75-1a11.27,11.27,0,0,0-1.71-1.13L19.19,36.32a2.5,2.5,0,0,1-.11-4.23c.27-.17,1-.64,23.47-13.93a6.94,6.94,0,0,0,2.24-1.9l.07-.11a1.3,1.3,0,0,0,.14-.66h0a7.31,7.31,0,0,0-1.07-2.21C42.59,11,41.81,10.77,41.8,10.77Z"/><path class="cls-1" d="M268,68.27a12.18,12.18,0,0,1-4.81-1.35,14.22,14.22,0,0,1-4.1-2.51,5.21,5.21,0,0,1-1.6-3.7,15.67,15.67,0,0,1,1-4.56,2.49,2.49,0,0,1,.11-.29L282.91,5.05c1.27-2.55,2.44-3.95,3.79-4.53A6.57,6.57,0,0,1,289.5,0a12.44,12.44,0,0,1,4.85,1.43c3.69,1.78,5.54,4,5.54,6.58,0,.71-.14,1.82-1.22,4.66a1.19,1.19,0,0,1-.08.2L274.36,63.22c-.43.91-.77,1.58-1,2a6.17,6.17,0,0,1-1.86,2A5.93,5.93,0,0,1,268,68.27Zm-5.51-7.56a1.42,1.42,0,0,0,.14.16,9.71,9.71,0,0,0,2.63,1.49,7.79,7.79,0,0,0,2.74.91,1.31,1.31,0,0,0,.62-.1,1.85,1.85,0,0,0,.41-.36c.13-.24.39-.74.85-1.73v0L294,10.8A12,12,0,0,0,294.89,8c0-.18-.49-1-2.66-2a9,9,0,0,0-2.73-1,2.73,2.73,0,0,0-.71.06h0a7.65,7.65,0,0,0-1.38,2.17L263.17,57.87a11.76,11.76,0,0,0-.73,2.84Z"/><path class="cls-1" d="M311,62.49A6.06,6.06,0,0,1,307,61a14.16,14.16,0,0,1-2.7-3.3c-1.31-2.17-1.89-3.69-1.89-5a6.53,6.53,0,0,1,.76-3.16.86.86,0,0,1,.1-.16,11.81,11.81,0,0,1,4.07-3.51l19.85-11.75L307.4,22.44a25.83,25.83,0,0,1-2.3-1.53l-.1-.09a6.5,6.5,0,0,1-2.52-5,9.54,9.54,0,0,1,1.64-4.92c2.06-3.45,4.19-5.13,6.52-5.13a10.26,10.26,0,0,1,5.41,1.82l32.11,19.1a7.82,7.82,0,0,1,4.32,7.47c0,4.34-2.29,6.42-4.25,7.41L316.07,60.72A9.48,9.48,0,0,1,311,62.49Zm-3.55-9.73a9.11,9.11,0,0,0,1.15,2.33,9.16,9.16,0,0,0,1.68,2.11c.21.18.9.76,3.2-.73l32.32-19.22.19-.1c.76-.37,1.54-1,1.54-3s-.83-2.64-1.64-3.05a.8.8,0,0,1-.16-.08L313.44,11.87a5.53,5.53,0,0,0-2.8-1.08s-.78.27-2.23,2.7a5,5,0,0,0-.93,2.35,1.79,1.79,0,0,0,.74,1.16c.28.21.8.57,1.76,1.16L333.36,32a2.51,2.51,0,0,1,0,4.31L309.88,50.23a8.3,8.3,0,0,0-2.37,1.84,1.84,1.84,0,0,0-.11.69Z"/></g></g></svg>